<?xml version="1.0" encoding="UTF-8"?>
<svg width="92px" height="33px" viewBox="0 0 92 33" version="1.1" xmlns="http://www.w3.org/2000/svg" xmlns:xlink="http://www.w3.org/1999/xlink">
    <!-- Generator: Sketch 48.1 (47250) - http://www.bohemiancoding.com/sketch -->
    <title>Group 5</title>
    <desc>Created with Sketch.</desc>
    <defs></defs>
    <g id="vtb_ru" stroke="none" stroke-width="1" fill="none" fill-rule="evenodd">
        <g id="Group-5">
            <g id="Group-3-Copy">
                <path d="M27.6590737,0 L6.17949474,0 L4.61936842,4.26008421 L26.0989474,4.26008421 L27.6590737,0 Z M25.3184,6.41966316 L3.83978947,6.41966316 L2.27966316,10.6797474 L23.7592421,10.6797474 L25.3184,6.41966316 Z M22.9786947,12.7792842 L1.50008421,12.7792842 L0,17.0393684 L21.4786105,17.0393684 L22.9786947,12.7792842 Z" id="Fill-1" fill="#009FDF"></path>
                <path d="M86.7569684,18.7292632 L86.7569684,18.8173895 C87.7312,19.1718316 88.6599158,19.7916211 89.1470316,20.1896421 C90.6519579,21.4292211 91.3162947,23.0668211 91.3162947,25.1915368 C91.3162947,28.6875368 89.4569263,31.2112421 86.4034947,32.0072842 C85.4738105,32.2736 84.4995789,32.3617263 82.6847579,32.3617263 L73.4344,32.3617263 L73.4344,6.77894737 L81.6224,6.77894737 C83.3045474,6.77894737 84.456,6.86707368 85.4738105,7.13242105 C88.4391158,7.92943158 90.3866105,9.96602105 90.3866105,13.1966737 C90.3866105,14.9224 89.7668211,16.3837474 88.7490105,17.3570105 C88.3064421,17.7995789 87.6866526,18.3312421 86.7569684,18.7292632 Z M78.5689684,21.4292211 L78.5689684,28.1568421 L82.1095158,28.1568421 C83.1718737,28.1568421 84.1461053,28.0687158 84.8540211,27.4043789 C85.5619368,26.7410105 85.8718316,25.8994526 85.8718316,24.7935158 C85.8718316,23.9519579 85.6510316,23.1549474 85.2084632,22.5797053 C84.456,21.6509895 83.5263158,21.4292211 81.9322947,21.4292211 L78.5689684,21.4292211 Z M78.5244211,17.0035368 L81.4016,17.0035368 C82.2867368,17.0035368 82.7293053,17.0035368 83.1718737,16.8698947 C84.3669053,16.5164211 85.1193684,15.4540632 85.1193684,13.9936842 C85.1193684,12.2669895 84.3233263,11.5145263 83.1718737,11.1610526 C82.6847579,11.0274105 82.1986105,10.9838316 81.2243789,10.9838316 L78.5244211,10.9838316 L78.5244211,17.0035368 Z M58.6950316,32.3617263 L58.6950316,11.0719579 L51.3040421,11.0719579 L51.3040421,6.77894737 L71.8413474,6.77894737 L70.38,11.0719579 L63.8296,11.0719579 L63.8296,32.3617263 L58.6950316,32.3617263 Z M37.1002105,32.3617263 L29.0526316,6.77894737 L34.6975579,6.77894737 L37.8207158,17.8886737 C38.7213474,21.1919579 39.2016842,22.9331789 39.8021053,25.6960842 C40.3424842,23.0532632 40.7027368,21.7923789 41.7234526,18.0688 L44.8466105,6.77894737 L50.2513684,6.77894737 L42.0837053,32.3617263 L37.1002105,32.3617263 Z" id="Fill-2" fill="#0A2973"></path>
            </g>
        </g>
    </g>
</svg>